<svg width="621" height="770" viewBox="0 0 621 770" fill="none" xmlns="http://www.w3.org/2000/svg">
<path fill-rule="evenodd" clip-rule="evenodd" d="M413.675 20.1473C406.417 14.0335 397.737 13.4798 390.659 15.1639C384.009 16.7459 377.87 20.4007 372.663 24.2967C344.012 45.7342 306.574 87.1904 293.724 119.961C274.309 118.133 255.597 118.713 236.741 119.884C224.192 99.3421 205.373 72.4593 184.155 49.6415C171.989 36.5575 158.6 24.3363 144.739 15.4481C131.284 6.82016 115.897 0.376804 99.9276 0.986179L99.1668 1.02134C76.4781 2.20493 61.3741 18.3299 52.1688 37.1366C42.9212 56.0291 37.7794 80.8558 35.7352 107.526C31.7205 159.908 39.3155 224.326 57.2117 277.324C54.8594 298.089 50.9556 310.588 43.0262 330.355C40.9329 335.574 38.5499 341.313 35.8494 347.818C27.8597 367.062 17.0914 392.999 2.8299 431.919L0.963692 437.031C-1.17303 442.907 0.309151 449.49 4.75764 453.884C9.20612 458.277 15.8065 459.676 21.6551 457.467L22.6082 457.112C31.1539 453.969 38.0299 452.606 43.493 452.353C37.4481 462.951 30.189 476.113 24.534 488.938C19.6168 500.091 15.2615 512.289 13.4842 524.092C11.733 535.722 12.1739 549.119 19.5174 560.613L20.0447 561.425C31.285 578.415 52.658 592.393 75.2713 604.416C97.2552 616.104 123.321 627.377 148.783 638.389L154.518 640.87C182.154 652.835 208.705 664.523 230.149 676.665C252.303 689.207 265.737 700.501 270.765 710.303L271.848 712.397C274.941 718.322 281.867 731.13 290.126 742.667C294.771 749.155 300.471 756.152 306.756 761.248C312.23 765.686 322.983 772.545 335.435 768.049L337.225 767.413C347.141 763.917 371.219 755.417 396.587 730.882C421.352 706.93 446.457 668.639 462.463 606.974C465.706 607.55 469.52 607.755 473.493 606.849C482.089 604.891 487.704 598.794 490.632 591.631C493.207 585.33 494.001 577.701 494.001 569.5C494.001 563.337 492.508 557.129 490.732 551.599C488.913 545.932 486.457 539.969 483.878 534.094C482.076 529.99 480.233 525.954 478.393 521.927C474.705 513.855 471.03 505.812 467.732 497.301C458.754 474.128 456.713 457.388 464.174 445.58C472.021 445.343 480.257 444.621 488.885 443.321L490.798 443.02C530.798 436.48 560.203 415.482 579.549 391.645C598.809 367.913 609.001 340.213 609.001 319.5C609.001 319.014 608.979 318.534 608.936 318.06C608.897 317.618 608.839 317.182 608.764 316.752C617.901 307.14 621.001 294.931 621.001 283.857C621.001 275.656 619.09 267.983 614.599 261.516C610.116 255.06 604.037 251.213 598.168 248.938C593.314 247.057 588.035 246.073 583.001 245.558V219C583.001 215.461 582.962 211.287 582.372 207.422C581.761 203.422 580.356 198.202 576.459 193.545C572.425 188.724 567.223 186.272 562.349 185.015C557.725 183.822 552.626 183.5 547.501 183.5H451.221C452.945 161.035 453.435 150.757 450.656 121.118C448.84 101.75 445.582 82.0985 440.097 64.8299C434.794 48.1302 426.884 31.9588 414.606 20.9618L414.018 20.4422L413.675 20.1473Z" fill="url(#paint0_linear_1812_96)"/>
<path d="M205.029 426.5C205.029 407.5 236 357.5 293.529 357.5C312.686 357.667 357.2 350.6 382 321C413 284 423.5 257.5 440.5 259C454.1 260.2 514.5 265.5 543 268L591 321L559.5 400.5L445 437L468.5 560.5V591.5L451.5 600.5L409 697.5L326 739C449.002 572.5 205.029 488.5 205.029 426.5Z" fill="#FDDAB6"/>
<path d="M307.5 348.724L233.5 306V207.5H560V258.724H433.5L343.5 348.724H307.5Z" fill="url(#paint1_linear_1812_96)"/>
<path d="M273.526 278.853C268.265 275.815 266.462 269.088 269.5 263.827L303.042 205.73C305.505 201.465 310.959 200.003 315.225 202.466V202.466C319.491 204.929 320.952 210.383 318.489 214.649L282.866 276.35C280.978 279.62 276.796 280.741 273.526 278.853V278.853Z" fill="white"/>
<path fill-rule="evenodd" clip-rule="evenodd" d="M413.675 20.1473C406.417 14.0335 397.737 13.4798 390.659 15.1639C384.009 16.7459 377.87 20.4007 372.663 24.2967C344.012 45.7342 306.574 87.1904 293.724 119.961C274.309 118.133 255.597 118.713 236.741 119.884C224.192 99.3421 205.373 72.4593 184.155 49.6415C171.989 36.5575 158.6 24.3363 144.739 15.4481C131.284 6.82016 115.897 0.376804 99.9276 0.986179L99.1668 1.02134C76.4781 2.20493 61.3741 18.3299 52.1688 37.1366C42.9212 56.0291 37.7794 80.8558 35.7352 107.526C31.7205 159.908 39.3155 224.326 57.2117 277.324C54.8594 298.089 50.9556 310.588 43.0262 330.355C40.9329 335.574 38.5499 341.313 35.8494 347.818C27.8597 367.062 17.0914 392.999 2.8299 431.919L0.963692 437.031C-1.17303 442.907 0.309151 449.49 4.75764 453.884C9.20612 458.277 15.8065 459.676 21.6551 457.467L22.6082 457.112C31.1539 453.969 38.0299 452.606 43.493 452.353C37.4481 462.951 30.189 476.113 24.534 488.938C19.6168 500.091 15.2615 512.289 13.4842 524.092C11.733 535.722 12.1739 549.119 19.5174 560.613L20.0447 561.425C31.285 578.415 52.658 592.393 75.2713 604.416C97.2552 616.104 123.321 627.377 148.783 638.389L154.518 640.87C182.154 652.835 208.705 664.523 230.149 676.665C252.303 689.207 265.737 700.501 270.765 710.303L271.848 712.397C274.941 718.322 281.867 731.13 290.126 742.667C294.771 749.155 300.471 756.152 306.756 761.248C312.23 765.686 322.983 772.545 335.435 768.049L337.225 767.413C347.141 763.917 371.219 755.417 396.587 730.882C421.352 706.93 446.457 668.639 462.463 606.974C465.706 607.55 469.52 607.755 473.493 606.849C482.089 604.891 487.704 598.794 490.632 591.631C493.207 585.33 494.001 577.701 494.001 569.5C494.001 563.337 492.508 557.129 490.732 551.599C488.913 545.932 486.457 539.969 483.878 534.094C482.076 529.99 480.233 525.954 478.393 521.927C474.705 513.855 471.03 505.812 467.732 497.301C458.754 474.128 456.713 457.388 464.174 445.58C472.021 445.343 480.257 444.621 488.885 443.321L490.798 443.02C530.798 436.48 560.203 415.482 579.549 391.645C598.809 367.913 609.001 340.213 609.001 319.5C609.001 319.014 608.979 318.534 608.936 318.06C608.897 317.618 608.839 317.182 608.764 316.752C617.901 307.14 621.001 294.931 621.001 283.857C621.001 275.656 619.09 267.983 614.599 261.516C610.116 255.06 604.037 251.213 598.168 248.938C593.314 247.057 588.035 246.073 583.001 245.558V219C583.001 215.461 582.962 211.287 582.372 207.422C581.761 203.422 580.356 198.202 576.459 193.545C572.425 188.724 567.223 186.272 562.349 185.015C557.725 183.822 552.626 183.5 547.501 183.5H451.221C454.241 144.152 452.118 102.682 440.097 64.8299C434.794 48.1302 426.884 31.9588 414.606 20.9618L414.018 20.4422L413.675 20.1473ZM90 311L212.501 254.691V274C212.501 289.703 218.684 311.708 235.679 329.917C253.116 348.6 280.708 362 321.001 362C365.524 362 392.692 333.208 410.14 308.806C414.56 302.626 418.509 296.512 422.006 291.021C425.596 285.385 428.552 280.662 431.343 276.618C434.033 272.72 435.975 270.342 437.366 269.003C440.569 269.01 442.518 269.041 443.998 269.164C444.153 269.177 444.291 269.19 444.411 269.203C444.493 269.291 444.586 269.393 444.689 269.51C445.898 270.876 447.406 272.872 450.201 276.599C453.223 280.628 457.965 283 463.001 283H513.009C513.004 283.285 513.001 283.571 513.001 283.857C513.001 295.276 516.296 307.905 526.109 317.645C535.954 327.417 550.06 332 567.001 332C569.858 332 572.634 331.866 575.323 331.602C572.488 343.087 565.934 357.641 554.703 371.479C539.596 390.094 516.863 406.338 485.611 411.444L484.117 411.679C415.724 421.984 379.513 389.156 370.765 378.825L370.37 378.35L370.104 378.035C364.451 371.49 354.576 370.613 347.851 376.131C341.127 381.648 340.059 391.503 345.374 398.326L345.632 398.649L346.281 399.429C356.613 411.647 384.218 435.998 430.24 443.45C423.654 465.811 430.627 490.103 437.894 508.861C441.528 518.239 445.91 527.842 449.801 536.368C451.525 540.147 453.154 543.715 454.577 546.957C457.021 552.524 458.952 557.297 460.263 561.382C461.619 565.602 462.001 568.162 462.001 569.5C462.001 570.896 461.967 572.136 461.911 573.234C461.288 572.972 460.644 572.701 459.949 572.406C459.062 572.029 458.101 571.621 457.118 571.215C452.735 569.401 447.772 569.626 443.57 571.829C439.5 573.963 436.551 577.741 435.461 582.191L435.361 582.624C420.924 649.517 396.157 686.778 374.34 707.88C354.873 726.707 336.913 733.565 327.549 736.891C327.356 736.746 327.144 736.58 326.91 736.391C323.939 733.982 320.206 729.711 316.146 724.04C309.172 714.298 303.093 703.093 300.25 697.653L299.236 695.696C289.515 676.747 268.386 661.541 245.915 648.818C222.735 635.694 194.597 623.351 167.233 611.504L161.814 609.159C135.989 597.988 111.079 587.213 90.2928 576.161C67.7479 564.174 53.107 553.37 46.7791 543.838L46.4842 543.386C45.0596 541.156 43.9285 536.815 45.1268 528.856C46.2994 521.07 49.4146 511.827 53.8143 501.848C60.0577 487.688 67.6258 474.577 73.9869 463.556C76.8526 458.591 79.4735 454.05 81.618 450.029C85.4339 442.874 83.294 433.995 76.6375 429.365C66.4683 422.291 54.3465 419.675 41.2654 420.441C51.1475 394.436 58.951 375.638 65.2452 360.476C68.0147 353.804 70.492 347.836 72.7254 342.268C77.7288 329.796 78.6711 316.727 90 311ZM259.073 308.083C248.068 296.291 244.501 282.297 244.501 274C244.501 271.109 244.466 268.152 244.431 265.179C244.147 240.898 243.848 215.5 262.317 215.5H433.346C433.427 215.501 433.509 215.5 433.591 215.5H547.501C548.854 215.5 549.999 215.534 550.966 215.589C550.991 216.565 551.001 217.682 551.001 219V244C551.001 247.5 549 251 544.5 251H470.907C470.143 250.045 469.391 249.137 468.653 248.303C466.221 245.554 463.125 242.599 458.84 240.449C454.553 238.298 450.328 237.579 446.65 237.273C443.349 236.999 439.476 236.999 435.523 237H435.001C426.401 237 419.961 241.534 415.955 245.215C411.824 249.01 408.171 253.853 405.003 258.444C401.778 263.118 398.367 268.568 395.015 273.83C391.571 279.237 388.004 284.748 384.111 290.193C368.31 312.291 349.477 330 321.001 330C288.295 330 269.636 319.4 259.073 308.083ZM100.835 32.9774L101.474 32.954C108.152 32.7997 116.836 35.5682 127.466 42.3846C138.245 49.2972 149.575 59.4452 160.722 71.4325C183.002 95.3934 202.815 124.812 214.134 144.48L214.428 144.972C217.552 149.978 223.196 152.873 229.114 152.461C255.299 150.634 278.227 149.605 301.904 153.179C302.043 153.202 302.182 153.223 302.321 153.242C307.555 154.043 312.826 155.07 318.179 156.364C337.4 161.012 358.17 169.242 382.088 183.5H258.501C256.149 183.5 253.828 184.018 251.703 185.015L251.28 185.222L87.8016 267.894C71.119 218.928 63.9278 158.426 67.6414 109.972C69.535 85.2674 74.1744 64.9681 80.911 51.2049C87.69 37.3558 94.7742 33.2933 100.835 32.9774ZM391.834 49.9178C393.457 48.703 394.765 47.8763 395.763 47.3221C400.894 53.0687 405.655 62.0965 409.598 74.5155C419.223 104.823 421.605 138.232 420.02 169.848C385.084 145.87 354.84 132.364 326.096 125.357C336.877 100.225 369.485 66.64 391.834 49.9178ZM561.001 273.5C561.001 269.91 563.911 267 567.501 267H591.668C595.258 267 598.168 269.91 598.168 273.5C598.168 277.09 595.258 280 591.668 280H567.501C563.911 280 561.001 277.09 561.001 273.5Z" fill="black"/>
<path d="M591.668 267H567.501C563.911 267 561.001 269.91 561.001 273.5C561.001 277.09 563.911 280 567.501 280H591.668C595.258 280 598.168 277.09 598.168 273.5C598.168 269.91 595.258 267 591.668 267Z" fill="white"/>
<path d="M111.734 63.5321C142.734 72.0323 180.234 129.533 190.734 155.533C191.734 159.032 187.734 160.032 185.734 159.532C170.734 155.532 147.923 153.953 151.234 162.033C154.5 170 177.177 188.333 160.734 190.532C153.5 191.5 131.734 185.533 133.234 192.533C135.1 201.237 144.734 203.033 140.734 212.033C136.74 221.02 104.397 242.247 101.5 233C78 158 83.6624 55.8351 111.734 63.5321Z" fill="#FDDAB6"/>
<defs>
<linearGradient id="paint0_linear_1812_96" x1="377" y1="-48.5" x2="138" y2="666.5" gradientUnits="userSpaceOnUse">
<stop stop-color="#FDD211"/>
<stop offset="0.654305" stop-color="#F06948"/>
<stop offset="1" stop-color="#7224D3"/>
</linearGradient>
<linearGradient id="paint1_linear_1812_96" x1="233.5" y1="295.228" x2="560" y2="260.996" gradientUnits="userSpaceOnUse">
<stop stop-color="#A833E3"/>
<stop offset="0.509615" stop-color="#F53D57"/>
<stop offset="0.817308" stop-color="#F0A24B"/>
<stop offset="1" stop-color="#52C4DA"/>
</linearGradient>
</defs>
</svg>
